<?xml version="1.0" encoding="UTF-8" standalone="no"?>
<!DOCTYPE svg PUBLIC "-//W3C//DTD SVG 1.1//EN"
 "http://www.w3.org/Graphics/SVG/1.1/DTD/svg11.dtd">
<!-- Generated by graphviz version 14.1.2 (20260124.0452)
 -->
<!-- Pages: 1 -->
<svg width="213pt" height="182pt"
 viewBox="0.00 0.00 213.00 182.00" xmlns="http://www.w3.org/2000/svg" xmlns:xlink="http://www.w3.org/1999/xlink">
<g id="graph0" class="graph" transform="scale(1 1) rotate(0) translate(4 177.94)">
<polygon fill="white" stroke="none" points="-4,4 -4,-177.94 209.25,-177.94 209.25,4 -4,4"/>
<!-- &#45;1 -->
<g id="node1" class="node">
<title>&#45;1</title>
<polygon fill="lightgray" stroke="black" points="23.5,-173.94 0,-173.94 0,-155.44 23.5,-155.44 23.5,-173.94"/>
<text xml:space="preserve" text-anchor="middle" x="11.75" y="-161.39" font-family="Times,serif" font-size="9.00">&#45;1</text>
</g>
<!-- &#45;2 -->
<g id="node2" class="node">
<title>&#45;2</title>
<polygon fill="lightgray" stroke="black" points="65.5,-173.94 42,-173.94 42,-155.44 65.5,-155.44 65.5,-173.94"/>
<text xml:space="preserve" text-anchor="middle" x="53.75" y="-161.39" font-family="Times,serif" font-size="9.00">&#45;2</text>
</g>
<!-- &#45;3 -->
<g id="node3" class="node">
<title>&#45;3</title>
<polygon fill="lightgray" stroke="black" points="107.5,-173.94 84,-173.94 84,-155.44 107.5,-155.44 107.5,-173.94"/>
<text xml:space="preserve" text-anchor="middle" x="95.75" y="-161.39" font-family="Times,serif" font-size="9.00">&#45;3</text>
</g>
<!-- &#45;4 -->
<g id="node4" class="node">
<title>&#45;4</title>
<polygon fill="lightgray" stroke="black" points="149.5,-173.94 126,-173.94 126,-155.44 149.5,-155.44 149.5,-173.94"/>
<text xml:space="preserve" text-anchor="middle" x="137.75" y="-161.39" font-family="Times,serif" font-size="9.00">&#45;4</text>
</g>
<!-- 912 -->
<g id="node8" class="node">
<title>912</title>
<ellipse fill="white" stroke="black" cx="137.75" cy="-98.58" rx="20.86" ry="20.86"/>
<text xml:space="preserve" text-anchor="middle" x="137.75" y="-95.28" font-family="Times,serif" font-size="9.00">912</text>
</g>
<!-- &#45;4&#45;&gt;912 -->
<g id="edge3" class="edge">
<title>&#45;4&#45;&gt;912</title>
<path fill="none" stroke="green" stroke-width="0.28" d="M137.75,-155.04C137.75,-148.61 137.75,-139.4 137.75,-130.34"/>
<polygon fill="green" stroke="green" stroke-width="0.28" points="141.25,-130.35 137.75,-120.35 134.25,-130.35 141.25,-130.35"/>
</g>
<!-- &#45;5 -->
<g id="node5" class="node">
<title>&#45;5</title>
<polygon fill="lightgray" stroke="black" points="201.5,-107.83 178,-107.83 178,-89.33 201.5,-89.33 201.5,-107.83"/>
<text xml:space="preserve" text-anchor="middle" x="189.75" y="-95.28" font-family="Times,serif" font-size="9.00">&#45;5</text>
</g>
<!-- 0 -->
<g id="node6" class="node">
<title>0</title>
<ellipse fill="lightblue" stroke="black" cx="190.75" cy="-20.86" rx="14.5" ry="14.5"/>
<text xml:space="preserve" text-anchor="middle" x="190.75" y="-17.56" font-family="Times,serif" font-size="9.00">0</text>
</g>
<!-- &#45;5&#45;&gt;0 -->
<g id="edge1" class="edge">
<title>&#45;5&#45;&gt;0</title>
<path fill="none" stroke="red" stroke-width="2.06" d="M189.86,-88.89C189.99,-79.16 190.21,-62.91 190.39,-48.84"/>
<polygon fill="red" stroke="red" stroke-width="2.06" points="193.89,-48.98 190.52,-38.94 186.89,-48.89 193.89,-48.98"/>
</g>
<!-- 619 -->
<g id="node7" class="node">
<title>619</title>
<ellipse fill="white" stroke="black" cx="137.75" cy="-20.86" rx="20.86" ry="20.86"/>
<text xml:space="preserve" text-anchor="middle" x="137.75" y="-17.56" font-family="Times,serif" font-size="9.00">619</text>
</g>
<!-- &#45;5&#45;&gt;619 -->
<g id="edge2" class="edge">
<title>&#45;5&#45;&gt;619</title>
<path fill="none" stroke="green" stroke-width="0.26" d="M183.78,-88.89C176.85,-78.79 165.08,-61.66 155.18,-47.25"/>
<polygon fill="green" stroke="green" stroke-width="0.26" points="158.09,-45.3 149.55,-39.04 152.32,-49.26 158.09,-45.3"/>
</g>
<!-- 912&#45;&gt;619 -->
<g id="edge4" class="edge">
<title>912&#45;&gt;619</title>
<path fill="none" stroke="green" stroke-width="0.91" d="M137.75,-77.29C137.75,-69.99 137.75,-61.57 137.75,-53.53"/>
<polygon fill="green" stroke="green" stroke-width="0.91" points="141.25,-53.59 137.75,-43.59 134.25,-53.59 141.25,-53.59"/>
</g>
</g>
</svg>
